<?xml version="1.0" encoding="UTF-8"?>
<svg id="Capa_2" data-name="Capa 2" xmlns="http://www.w3.org/2000/svg" viewBox="0 0 195.45 37.61">
  <defs>
    <style>
      .cls-1 {
        fill: #ffe900;
        fill-rule: evenodd;
        stroke-width: 0px;
      }
    </style>
  </defs>
  <g id="Capa_1-2" data-name="Capa 1">
    <path class="cls-1" d="M0,30.45v-.33c1.9-1.05,4.44-.99,6.02-2.68.9-.97,1.12-1.88-.04-2.58-.63-.38-1.49-.66-1.19-1.48.33-.9.92-1.67,2.09-2,.63-.18,1.47.12,1.92-.54q-2.61-1.32-.16-2.47c-1.49-.47-2.77-.47-4.11-.22-.5.09-1.21.1-1.34-.39-.17-.6.6-.7,1.05-.67,1.97.11,3.03-1.08,4.39-1.88-.56-.72-1.39-.54-2.02-.77-.22-.08-.49-.24-.54-.4-.1-.34.27-.52.58-.51,2.8.05,2.5-1.5,2.39-3.07-.18-2.76.51-3.53,3.61-4.14-.38-.2-.92-.35-.94-.53-.06-.51.59-.45.98-.58.83-.27,1.79-.25,2.48-.86,1.17-1.04,2.77-1.3,4.34-1.7,2.14-.56,4.34-.6,6.5-.64,3.43-.06,6.81-1.03,10.27-.35.72.14,1.49.03,2.06-.34,1.52-.98,3.28-.97,5.03-.91,1.29.04,2.65.53,3.83.3,5.85-1.12,11.77-.01,17.67-.54,4.47-.4,9.06.17,13.6.23,3.6.05,7.17.45,10.81.42,3.25-.03,6.55-.2,9.8.06.52.04,2.48-.91,1.48.98-.03.06.43.39.71.45.69.15,1.4.29,2.11.31,5.59.16,11.18.34,16.77.41,1.96.03,4.06.31,5.75-.99.19-.14.64-.15.93-.09,2.67.59,5.35.78,8.09.4.56-.08,1.24-.05,1.72.15,1.84.78,3.81.55,5.74.62.71.03,1.38-.39,2.11-.18.54.16,1.28.29,1.17.89-.1.54-.8.45-1.31.41-1.72-.12-3.43-.27-5.15-.41,2.06.71,4.56.3,6.34,1.89h-9.28c1.69.23,3.4.35,5.11.54.82.09,1.93.12,2,.98.07.9-.99.98-1.84,1.09-.29.04-.66.01-.75.46.32.03.63.08.94.07,5.58-.16,11.03.36,16.35,1.84,1.13.31,2.43.47,3.62-.06,1.36-.6,2.68-.43,4.14-.14,2.22.43,4.56.99,6.66-.43.24-.16.84-.25.83,0-.04,1.44,1.4.87,2.01.9,5.19.24,10.39.33,15.58.5,1.54.05,3.17-.26,4.56.68-3.66.1-7.36-.56-10.94.75,2.34-.17,3.72,1.51,5.76,1.96-2.45.64-4.98.14-7.44.75,1.49.08,2.98.15,4.89.25-1.61.6-2.69,1.98-4.13.38-.09-.1-.37-.1-.56-.1-2.61,0-5.22,0-7.83,0,1.77.57,3.54.94,5.31,1.26.86.15,1.46.41,1.4,1.26-.06.89-.97.76-1.58.92-.34.09-.76-.07-1.14-.06-1.88.08-3.76.19-5.57.28,0,.68.77.43.71,1.07-2.79.11-5.61.23-8.71.35.89,1.11,1.69,1.94,3.04,2.39,1.28.42,1.43-.69,2.18-.96,1.04-.37,2.2-.69,3.14-.02.95.67-.8.93-.58,1.58,1.18.61,2.29.01,3.41-.1.83-.08,1.47.2,1.62.87.18.77-.6.84-1.25.94-.82.13-1.68.08-2.48.65,2.65-1.07,4.63.45,6.83,1.06.86.24,1.47.84,1.41,1.6-.07.87-1.06.8-1.8.92-.72.11-1.52-.03-2.35.49,2.38.39,4.61.43,6.72,1.01.49.13,1.1.23,1.16.74.07.56-.54.71-1.02.82-3.64.85-7.42.92-10.99.21-2.76-.55-5.41-.89-8.24-.78-3.9.15-7.81,1.2-11.64.69-5.41-.72-10.73.35-16.13-.03-4.52-.31-9.13.65-13.74.22-.82-.08-1.71,0-2.52.17-2.03.42-4.11.59-6.17.7-7.6.39-15.2.46-22.81.39-6.14-.06-12.27.15-18.4.4-1.03.04-2.05.44-3.07.42-4.33-.09-8.6.32-12.9.73-2.33.23-4.57.83-6.92.91-6.6.22-13.21.47-19.82.33-1.62-.03-3.23-.23-4.85.06-.6.11-1.26-.07-1.29-.7-.03-.58.63-.41,1.04-.45.55-.06,1.1-.08,1.65-.12-1.6-.32-3.18-.51-4.7-.98-3-.93-6.21-.96-9.33-1.35-1.41-.18-2.56-.12-2.91-1.5-.16-.63-.77-.76-1.37-.56-.82.28-.55.75-.1,1.15.44.39.87.87.05,1.17-1.71.62-3.35,1.84-5.41.65-.37-.21-.94-.19-1.57-.31,1.18-.87.99-1.46-.13-2.26-1.06-.75-2.22-1.3-3.4-1.86Z"/>
  </g>
</svg>